<svg width="100" height="100" viewBox="0 0 100 100" fill="none" xmlns="http://www.w3.org/2000/svg">
<circle cx="50" cy="50" r="50" fill="#C00404" fill-opacity="0.06"/>
<path d="M73 42.0175C72.9909 41.4758 72.8708 40.9422 72.6473 40.4509C72.4238 39.9596 72.1019 39.5215 71.7024 39.165L67.4538 35.4633V31.5685C67.4529 30.6683 67.1021 29.8053 66.4786 29.1687C65.855 28.5322 65.0096 28.1741 64.1277 28.1732H59.0786L53.8908 23.6571C52.8217 22.7376 51.4688 22.2333 50.0708 22.2333C48.6729 22.2333 47.3199 22.7376 46.2508 23.6571L41.0626 28.1732H35.8723C34.9904 28.1741 34.145 28.5322 33.5214 29.1687C32.8978 29.8053 32.5471 30.6683 32.5462 31.5685V35.583L28.2964 39.2852C27.8939 39.6389 27.57 40.0763 27.3465 40.5681C27.1229 41.0599 27.0048 41.5947 27 42.1368V65.9724C27.0223 66.9923 27.437 67.9621 28.1544 68.6722C28.8719 69.3822 29.8343 69.7754 30.8336 69.7665H69.1664C69.6873 69.7671 70.2031 69.6602 70.6826 69.4524C71.1621 69.2445 71.5956 68.9399 71.9569 68.5568C72.6195 67.8658 72.9934 66.9393 73 65.9724L73 42.0175ZM56.2935 54.2638L71.2964 41.6464C71.3191 41.7684 71.277 66.5252 71.1712 66.7718L56.2935 54.2638ZM70.3645 40.2313L67.4538 42.6792V37.6956L70.3645 40.2313ZM47.3304 24.9486C48.0977 24.2896 49.0682 23.9283 50.0708 23.9283C51.0735 23.9283 52.044 24.2896 52.8112 24.9486L56.5157 28.1732H43.6256L47.3304 24.9486ZM35.8723 29.8709H64.1277C64.5686 29.8714 64.9913 30.0504 65.3031 30.3687C65.6149 30.6869 65.7902 31.1185 65.7907 31.5685V44.0778L52.3939 55.3445C51.7131 55.903 50.866 56.2074 49.9927 56.2074C49.1194 56.2074 48.2722 55.903 47.5915 55.3445L34.2092 44.0872V31.5685C34.2097 31.1185 34.3851 30.6869 34.6969 30.3687C35.0086 30.0504 35.4313 29.8714 35.8723 29.8709ZM28.8286 66.7711C28.7229 66.5246 28.6845 41.8216 28.7204 41.6691L43.6922 54.2635L28.8286 66.7711ZM32.5462 42.6882L29.6999 40.294L32.5462 37.8146V42.6882ZM30.0688 67.9276L44.9996 55.3633L46.5342 56.6542C47.5089 57.4716 48.7312 57.9184 49.9926 57.9184C51.2541 57.9184 52.4764 57.4716 53.4511 56.6542L54.9861 55.3633L69.9309 67.9277C69.6923 68.0151 30.3075 68.0151 30.0688 67.9276Z" fill="#C00404"/>
</svg>
