<svg width="28" height="26" viewBox="0 0 28 26" fill="none" xmlns="http://www.w3.org/2000/svg">
<path d="M24.4939 14.6327C23.8806 14.6327 23.3825 15.1317 23.3825 15.7476V23.2668H2.90831V2.7256H19.86C20.4732 2.7256 20.9713 2.22664 20.9713 1.61073C20.9713 0.994815 20.4739 0.49585 19.86 0.49585H1.7977C1.18375 0.496558 0.686378 0.995524 0.686378 1.61143V24.381C0.686378 24.9962 1.18375 25.4959 1.7977 25.4959H24.4946C25.1078 25.4959 25.6059 24.9969 25.6059 24.381V15.7476C25.6059 15.1324 25.1085 14.6327 24.4946 14.6327H24.4939Z" fill="#4E3629"/>
<path d="M27.1707 3.66891C26.7369 3.23374 26.0333 3.23374 25.5995 3.66891L12.5484 16.7618L8.00847 12.2073C7.57468 11.7721 6.87101 11.7721 6.43723 12.2073C6.00344 12.6425 6.00344 13.3484 6.43723 13.7836L11.7628 19.1262C11.9797 19.3438 12.2637 19.4529 12.5484 19.4529C12.8331 19.4529 13.1171 19.3438 13.334 19.1262L27.1707 5.24519C27.6045 4.81001 27.6045 4.10409 27.1707 3.66891Z" fill="#4E3629"/>
</svg>
