<svg width="32" height="33" viewBox="0 0 32 33" fill="none" xmlns="http://www.w3.org/2000/svg">
<path d="M31.28 13.9974H31.28L31.28 29.6202V29.6219C31.2753 30.3153 31.0073 30.9808 30.5309 31.478C30.5307 31.4782 30.5305 31.4785 30.5302 31.4787L30.3498 31.3057C30.1141 31.5555 29.8314 31.7542 29.5187 31.8898C29.2059 32.0253 28.8696 32.095 28.5298 32.0946L31.28 13.9974ZM31.28 13.9974L31.28 13.9932C31.2735 13.6058 31.1876 13.224 31.0275 12.8722C30.8675 12.5204 30.6369 12.2064 30.3502 11.9506L30.348 11.9487L27.6629 9.60921V7.18291V7.18265C27.6623 6.53098 27.4084 5.90519 26.9555 5.44285C26.5024 4.98034 25.887 4.71923 25.244 4.71853H25.2438H22.0445L18.7317 1.83468L18.7305 1.8337C17.9884 1.19541 17.0483 0.844727 16.0762 0.844727C15.1041 0.844727 14.1641 1.19541 13.4219 1.8337L13.4208 1.83467L10.1077 4.71853L6.81628 4.71853L6.81601 4.71853C6.173 4.71923 5.55759 4.98034 5.10452 5.44285C4.65162 5.90519 4.39778 6.53098 4.3971 7.18265V7.18291V9.68725L1.71129 12.027L1.71048 12.0277C1.42117 12.282 1.18873 12.596 1.0284 12.9487C0.86807 13.3014 0.783455 13.6847 0.780039 14.0731L0.780029 14.0731V14.0753V29.6202H0.77997L0.780089 29.6257C0.796014 30.3549 1.09253 31.0494 1.60707 31.5586C2.12151 32.0678 2.81265 32.3507 3.5313 32.3446H28.5296L31.28 13.9974ZM13.6088 23.7344L13.6091 23.7347C14.2893 24.3052 15.1433 24.6176 16.0252 24.6176C16.9072 24.6176 17.7611 24.3052 18.4414 23.7347L18.4417 23.7344L19.2818 23.0278L28.3598 30.6599C28.2177 30.6613 28.0543 30.6627 27.8712 30.6641C27.1543 30.6695 26.138 30.6739 24.9219 30.6775C22.4899 30.6846 19.26 30.6881 16.0299 30.6881C12.7999 30.6881 9.56999 30.6846 7.13796 30.6774C5.92189 30.6739 4.90561 30.6694 4.18864 30.6641C4.00538 30.6627 3.84183 30.6613 3.69959 30.6598L12.769 23.028L13.6088 23.7344ZM29.6072 29.6215L20.5229 21.9841L29.6723 14.2896C29.6724 14.3475 29.6725 14.4097 29.6726 14.4761C29.6731 14.9252 29.673 15.5628 29.6722 16.3264C29.6706 17.8536 29.6664 19.8841 29.6596 21.9172C29.6528 23.9503 29.6433 25.9856 29.6313 27.5226C29.6253 28.2912 29.6186 28.9345 29.6113 29.3905C29.61 29.4741 29.6086 29.5512 29.6072 29.6215ZM27.6629 11.7282L28.9268 12.8292L27.6629 13.8921V11.7282ZM14.4519 3.05518C14.4521 3.05502 14.4523 3.05486 14.4525 3.05469C14.9078 2.66383 15.4829 2.45016 16.0762 2.45016C16.6696 2.45016 17.2446 2.66383 17.7 3.05468C17.7002 3.05485 17.7004 3.05502 17.7006 3.05518L19.6114 4.71853H12.5408L14.4519 3.05518ZM6.81657 6.32572H25.2435C25.4631 6.32598 25.6748 6.41512 25.8317 6.57532C25.9888 6.7357 26.0781 6.95421 26.0783 7.18319V15.2247L17.4327 22.4957C17.4323 22.496 17.4319 22.4963 17.4315 22.4966C17.0321 22.8239 16.536 23.0017 16.0253 23.0017C15.5145 23.0017 15.0185 22.8239 14.619 22.4966C14.6186 22.4963 14.6182 22.496 14.6178 22.4957L5.98169 15.2308V7.18319C5.98194 6.95421 6.07121 6.7357 6.22831 6.57532C6.38524 6.41512 6.59691 6.32598 6.81657 6.32572ZM11.5279 21.984L2.45277 29.6207C2.45142 29.5509 2.45009 29.4744 2.44877 29.3916C2.44156 28.9366 2.43502 28.2945 2.42919 27.5274C2.41752 25.9935 2.40866 23.9619 2.40268 21.9319C2.39671 19.9021 2.39362 17.8741 2.39349 16.3475C2.39343 15.5842 2.3941 14.9464 2.39552 14.4964C2.39574 14.4272 2.39598 14.3624 2.39623 14.3023L11.5279 21.984ZM4.3971 11.8057V13.8979L3.17528 12.8701L4.3971 11.8057Z" fill="white" stroke="white" stroke-width="0.5"/>
</svg>
