<svg width="100" height="100" viewBox="0 0 100 100" fill="none" xmlns="http://www.w3.org/2000/svg">
<circle cx="50" cy="50" r="50" fill="#F0F3F5"/>
<circle cx="50" cy="50" r="49.5" stroke="#687078" stroke-opacity="0.1"/>
<path d="M52.3032 27.141V25.3482V25.348H52.4282C52.4274 24.8065 52.5333 24.2702 52.7399 23.7698C52.9465 23.2693 53.2498 22.8145 53.6323 22.4313C54.0149 22.0482 54.4693 21.7442 54.9694 21.5368C55.4695 21.3294 56.0057 21.2227 56.5471 21.2227C57.0886 21.2227 57.6247 21.3294 58.1248 21.5368C58.625 21.7442 59.0793 22.0482 59.4619 22.4313C59.8444 22.8145 60.1477 23.2693 60.3543 23.7698C60.5609 24.2702 60.6669 24.8065 60.666 25.348L52.3032 27.141ZM52.3032 27.141H43.4517L43.4517 25.348L43.4517 25.3468C43.4415 24.228 42.9899 23.1584 42.1951 22.3708C41.4003 21.5832 40.3266 21.1414 39.2077 21.1414C38.0888 21.1414 37.0152 21.5833 36.2204 22.3709C35.4256 23.1585 34.974 24.2281 34.9639 25.3469L34.9639 25.3469V25.3481V27.1409H32.1235H32.1234C30.871 27.1423 29.6703 27.6403 28.7847 28.5259C27.8991 29.4114 27.4009 30.612 27.3994 31.8644V31.8646L27.3994 67.2147L27.3994 67.2148C27.4009 68.4672 27.8991 69.6679 28.7847 70.5534C29.6703 71.4389 30.871 71.937 32.1234 71.9383H32.1235H52.9254C54.2711 73.6193 55.976 74.9782 57.9152 75.9154C59.8726 76.8613 62.0184 77.353 64.1923 77.3539L64.1954 77.3538C80.9334 76.9436 84.0764 54.0876 68.3555 49.0385V31.8646V31.8645C68.354 30.6121 67.8558 29.4114 66.9702 28.5259C66.0846 27.6404 64.8839 27.1423 63.6315 27.141H63.6313H60.791V25.3482L52.3032 27.141ZM32.1237 29.391H34.9639V34.87H34.9639L34.9639 34.8724C34.9695 35.167 35.0905 35.4478 35.3009 35.6542C35.5113 35.8606 35.7942 35.9762 36.0889 35.9762C36.3837 35.9762 36.6666 35.8605 36.877 35.6541C37.0873 35.4477 37.2083 35.167 37.2139 34.8723H37.2139V34.8699V29.391H37.2271H37.2473H37.2676H37.2881H37.3087H37.3294H37.3502H37.3711H37.3921H37.4133H37.4345H37.4559H37.4774H37.499H37.5207H37.5426H37.5645H37.5866H37.6087H37.631H37.6534H37.6759H37.6985H37.7212H37.7441H37.767H37.79H37.8132H37.8364H37.8598H37.8832H37.9068H37.9305H37.9543H37.9781H38.0021H38.0262H38.0504H38.0747H38.0991H38.1236H38.1481H38.1728H38.1976H38.2225H38.2475H38.2726H38.2978H38.323H38.3484H38.3739H38.3994H38.4251H38.4508H38.4767H38.5026H38.5287H38.5548H38.581H38.6073H38.6337H38.6602H38.6868H38.7135H38.7402H38.7671H38.794H38.821H38.8481H38.8753H38.9026H38.93H38.9574H38.985H39.0126H39.0403H39.0681H39.096H39.124H39.152H39.1801H39.2083H39.2366H39.265H39.2934H39.3219H39.3505H39.3792H39.408H39.4368H39.4657H39.4947H39.5238H39.5529H39.5821H39.6114H39.6408H39.6702H39.6997H39.7293H39.759H39.7887H39.8185H39.8484H39.8783H39.9083H39.9384H39.9685H39.9988H40.029H40.0594H40.0898H40.1203H40.1508H40.1815H40.2121H40.2429H40.2737H40.3046H40.3355H40.3665H40.3976H40.4287H40.4599H40.4911H40.5224H40.5538H40.5852H40.6167H40.6482H40.6798H40.7115H40.7432H40.775H40.8068H40.8387H40.8706H40.9026H40.9347H40.9668H40.9989H41.0311H41.0634H41.0957H41.1281H41.1605H41.1929H41.2255H41.258H41.2906H41.3233H41.356H41.3888H41.4216H41.4544H41.4873H41.5202H41.5532H41.5863H41.6193H41.6525H41.6856H41.7188H41.7521H41.7854H41.8187H41.8521H41.8855H41.9189H41.9524H41.986H42.0195H42.0531H42.0868H42.1205H42.1542H42.1879H42.2217H42.2556H42.2894H42.3233H42.3572H42.3912H42.4252H42.4592H42.4933H42.5274H42.5615H42.5957H42.6298H42.6641H42.6983H42.7326H42.7669H42.8012H42.8356H42.8699H42.9043H42.9388H42.9732H43.0077H43.0422H43.0768H43.1113H43.1459H43.1805H43.2151H43.2498H43.2844H43.3191H43.3538H43.3885H43.4233H43.4581H43.4928H43.5276H43.5625H43.5973H43.6321H43.667H43.7019H43.7368H43.7717H43.8066H43.8416H43.8765H43.9115H43.9464H43.9814H44.0164H44.0514H44.0865H44.1215H44.1565H44.1916H44.2266H44.2617H44.2968H44.3319H44.3669H44.402H44.4371H44.4722H44.5073H44.5424H44.5776H44.6127H44.6478H44.6829H44.718H44.7532H44.7883H44.8234H44.8585H44.8937H44.9288H44.9639H44.999H45.0341H45.0693H45.1044H45.1395H45.1746H45.2097H45.2448H45.2799H45.3149H45.35H45.3851H45.4201H45.4552H45.4902H45.5253H45.5603H45.5953H45.6303H45.6653H45.7003H45.7352H45.7702H45.8051H45.8401H45.875H45.9099H45.9448H45.9796H46.0145H46.0493H46.0841H46.1189H46.1537H46.1885H46.2232H46.258H46.2927H46.3274H46.3621H46.3967H46.4313H46.4659H46.5005H46.5351H46.5696H46.6041H46.6386H46.6731H46.7075H46.7419H46.7763H46.8107H46.845H46.8793H46.9136H46.9479H46.9821H47.0163H47.0504H47.0846H47.1187H47.1527H47.1868H47.2208H47.2547H47.2887H47.3226H47.3564H47.3903H47.4241H47.4578H47.4916H47.5253H47.5589H47.5925H47.6261H47.6597H47.6932H47.7266H47.76H47.7934H47.8268H47.8601H47.8933H47.9265H47.9597H47.9928H48.0259H48.059H48.092H48.1249H48.1578H48.1907H48.2235H48.2563H48.289H48.3217H48.3543H48.3869H48.4194H48.4519H48.4843H48.5167H48.549H48.5813H48.6135H48.6456H48.6777H48.7098H48.7418H48.7738H48.8057H48.8375H48.8693H48.901H48.9327H48.9643H48.9959H49.0274H49.0588H49.0902H49.1215H49.1528H49.1839H49.2151H49.2462H49.2772H49.3081H49.339H49.3698H49.4006H49.4313H49.4619H49.4925H49.523H49.5534H49.5838H49.6141H49.6443H49.6745H49.7046H49.7346H49.7646H49.7944H49.8243H49.854H49.8837H49.9133H49.9428H49.9723H50.0016H50.031H50.0602H50.0893H50.1184H50.1474H50.1764H50.2052H50.234H50.2627H50.2913H50.3199H50.3483H50.3767H50.405H50.4332H50.4614H50.4894H50.5174H50.5453H50.5731H50.6008H50.6285H50.656H50.6835H50.7109H50.7382H50.7654H50.7926H50.8196H50.8466H50.8734H50.9002H50.9269H50.9535H50.98H51.0064H51.0328H51.059H51.0852H51.1112H51.1372H51.1631H51.1888H51.2145H51.2401H51.2656H51.291H51.3163H51.3415H51.3666H51.3916H51.4165H51.4413H51.466H51.4906H51.5151H51.5396H51.5639H51.5881H51.6122H51.6362H51.6601H51.6839H51.7076H51.7312H51.7547H51.7781H51.8013H51.8245H51.8476H51.8705H51.8934H51.9161H51.9387H51.9613H51.9837H52.006H52.0282H52.0503H52.0722H52.0941H52.1158H52.1375H52.159H52.1804H52.2017H52.2229H52.2439H52.2649H52.2857H52.3033L52.3033 34.87L52.3033 34.8718C52.3077 35.1673 52.4281 35.4492 52.6386 35.6566C52.8491 35.864 53.1328 35.9803 53.4283 35.9803C53.7238 35.9803 54.0074 35.864 54.2179 35.6566C54.4284 35.4492 54.5489 35.1673 54.5533 34.8718V34.87V29.391H59.6515L61.6397 29.391L63.0007 29.391H63.4531L63.5822 29.391L63.6175 29.391L63.6272 29.391L63.63 29.391L63.6308 29.391H63.631L63.6311 29.391H63.6313C64.2873 29.3916 64.9161 29.6525 65.38 30.1162C65.8438 30.58 66.1047 31.2088 66.1055 31.8648V37.3002H29.6494V31.8648C29.6502 31.2088 29.9111 30.58 30.375 30.1162C30.8388 29.6525 31.4678 29.3917 32.1237 29.391ZM54.5533 25.3487C54.5587 24.8235 54.771 24.3217 55.1443 23.9521C55.5176 23.5825 56.0218 23.3751 56.5472 23.3751C57.0726 23.3751 57.5768 23.5825 57.9501 23.9522C58.3233 24.3217 58.5357 24.8236 58.5411 25.3487V27.141H54.5533V25.3487ZM37.2139 25.3486C37.2192 24.8234 37.4315 24.3214 37.8047 23.9518C38.1781 23.582 38.6824 23.3746 39.2078 23.3746C39.7333 23.3746 40.2376 23.5821 40.6109 23.9518C40.9842 24.3215 41.1965 24.8235 41.2017 25.3487V27.141H37.2139V25.3486ZM32.1237 69.6884C31.4678 69.6877 30.8389 69.4269 30.375 68.9631C29.9112 68.4993 29.6502 67.8705 29.6495 67.2146V39.5502H66.1055V48.5596C63.4883 48.2058 60.8232 48.5761 58.4004 49.6316C55.9334 50.7063 53.8156 52.4487 52.2857 54.6624C50.7558 56.8761 49.8746 59.4731 49.7414 62.1607C49.6117 64.778 50.1964 67.3799 51.4309 69.6884L32.1237 69.6884ZM64.1924 75.1039C60.9529 75.1001 57.8472 73.8116 55.5566 71.5209C53.2665 69.2309 51.9781 66.1262 51.9736 62.8876C52.6477 46.6755 75.7395 46.68 76.4111 62.8877C76.4067 66.1262 75.1182 69.2309 72.8282 71.5209C70.5375 73.8116 67.4318 75.1001 64.1924 75.1039Z" fill="#687078" stroke="#687078" stroke-width="0.25"/>
<path d="M64.0303 54.229V63.729L69.5303 69.229" stroke="#687078" stroke-width="2" stroke-linecap="round"/>
</svg>
