<?xml version="1.0" encoding="utf-8"?>
<!-- Generator: Adobe Illustrator 28.3.0, SVG Export Plug-In . SVG Version: 6.00 Build 0)  -->
<svg version="1.1" id="Layer_1" xmlns="http://www.w3.org/2000/svg" xmlns:xlink="http://www.w3.org/1999/xlink" x="0px" y="0px"
	 viewBox="0 0 100 100" style="enable-background:new 0 0 100 100;" xml:space="preserve">
<style type="text/css">
	.st0{fill:#C00404;fill-opacity:6.000000e-02;}
	.st1{fill:none;stroke:#C00404;stroke-width:2;stroke-linecap:round;}
	.st2{fill:#C00404;}
</style>
<circle class="st0" cx="50" cy="50" r="50"/>
<path class="st1" d="M64.7,55.3v9.5l5.5,5.5"/>
<path class="st2" d="M68.9,50.2V32.9c0-1.2-0.5-2.4-1.3-3.2c-0.9-0.9-2-1.3-3.3-1.3h-3v-1.9c0-0.5-0.1-1.1-0.3-1.6
	c-0.2-0.5-0.5-1-0.9-1.3c-0.4-0.4-0.8-0.7-1.3-0.9c-1-0.4-2.2-0.4-3.2,0c-0.5,0.2-1,0.5-1.3,0.9c-0.4,0.4-0.7,0.8-0.9,1.3
	s-0.3,1-0.3,1.6v1.9H44v-1.9c0-1.1-0.4-2.1-1.2-2.9s-1.8-1.2-2.9-1.2s-2.1,0.4-2.9,1.2c-0.8,0.8-1.2,1.8-1.2,2.9v1.9h-3
	c-1.2,0-2.4,0.5-3.2,1.3c-0.9,0.9-1.3,2-1.3,3.3v35.4c0,1.2,0.5,2.4,1.3,3.2s2,1.3,3.3,1.3h20.9c1.3,1.7,3.1,3.1,5,4
	c1.9,0.9,4.1,1.4,6.2,1.4c8.6-0.2,13.3-6.3,14.1-12.3C79.9,59.9,77.1,52.7,68.9,50.2z M37.8,28.3v-1.9c0-0.6,0.2-1.1,0.6-1.5
	c0.8-0.8,2.2-0.8,3,0c0.4,0.4,0.6,0.9,0.6,1.5v1.9H37.8z M55.1,26.4c0-0.6,0.2-1.1,0.6-1.5c0.8-0.8,2.2-0.8,3,0
	c0.4,0.4,0.6,0.9,0.6,1.5v1.9h-4.2V26.4z M31,70.1c-0.5-0.5-0.8-1.1-0.8-1.8V41.5h36.7v8.2c-2.6-0.4-5.3,0-7.8,1
	c-2.4,1.1-4.5,2.8-6.1,5c-1.5,2.2-2.4,4.8-2.5,7.4c-0.1,2.7,0.5,5.3,1.8,7.6H32.8C32.1,70.9,31.5,70.6,31,70.1z M30.2,39.5V33
	c0-1.5,1.3-2.8,2.8-2.8h31.1c1.5,0,2.8,1.3,2.8,2.8v6.6H30.2z M64.9,51.7c5.7,0,12,3.8,12.3,12.3c0,3.3-1.3,6.4-3.6,8.7
	c-2.3,2.3-5.4,3.6-8.7,3.6c-3.3,0-6.4-1.3-8.7-3.6c-2.3-2.3-3.6-5.4-3.6-8.7C52.9,55.5,59.2,51.7,64.9,51.7z"/>
</svg>
