<svg width="100" height="100" viewBox="0 0 100 100" fill="none" xmlns="http://www.w3.org/2000/svg">
<circle cx="50" cy="50" r="50" fill="#F0F3F5"/>
<circle cx="50" cy="50" r="49.5" stroke="#687078" stroke-opacity="0.1"/>
<path d="M85.4892 50.3881L78.3301 32.785C78.0787 32.1734 77.5918 31.6844 76.9757 31.4246C76.3595 31.1648 75.6641 31.1553 75.0409 31.3982L69.5147 33.576C68.9604 33.7958 68.5031 34.2018 68.224 34.7219C67.9448 35.242 67.8619 35.8427 67.9899 36.4173C66.8385 37.0277 65.5423 37.3238 64.2355 37.2751L52.6509 36.0573C50.1526 35.786 47.642 36.4481 45.6161 37.9126L36.0378 37.4958C34.7393 37.4059 33.4811 37.0139 32.3666 36.3519C32.4738 35.7849 32.3786 35.1988 32.097 34.693C31.8154 34.1871 31.3648 33.7928 30.8216 33.5766L25.2961 31.3981C24.6729 31.1554 23.9776 31.1649 23.3615 31.4245C22.7454 31.6842 22.2585 32.173 22.0068 32.7844L14.8465 50.3881C14.5984 51.0014 14.6074 51.6865 14.8714 52.2934C15.1355 52.9003 15.6331 53.3793 16.2552 53.6257L21.782 55.8048C22.2886 56.0029 22.8467 56.0345 23.373 55.895C23.8994 55.7554 24.3658 55.4521 24.7028 55.0303L29.218 58.0405C28.7915 58.6104 28.5314 59.2841 28.4658 59.989C28.4002 60.6938 28.5317 61.4029 28.8459 62.0396C29.1601 62.6762 29.6451 63.2161 30.2486 63.6009C30.852 63.9857 31.5508 64.2008 32.2694 64.2228C32.295 64.7633 32.436 65.2924 32.683 65.7757C32.9301 66.259 33.2778 66.6856 33.7034 67.0279C34.1291 67.3702 34.6232 67.6203 35.1536 67.7622C35.6839 67.904 36.2387 67.9343 36.7817 67.851C36.9779 68.7478 37.4929 69.546 38.2341 70.1019C38.9752 70.6578 39.8937 70.9348 40.824 70.8829C40.9308 71.626 41.2541 72.3228 41.7546 72.8888C42.2551 73.4549 42.9116 73.8661 43.6445 74.0727C44.3774 74.2792 45.1553 74.2723 45.8843 74.0528C46.6133 73.8332 47.2621 73.4104 47.7522 72.8356L48.6252 71.7888L50.4195 73.158C51.0024 73.5953 51.6901 73.8773 52.416 73.9767C53.1419 74.0762 53.8816 73.9896 54.5637 73.7255C55.2457 73.4613 55.8471 73.0285 56.3096 72.4688C56.7722 71.9091 57.0803 71.2414 57.2043 70.5303C57.8013 70.6746 58.4229 70.6896 59.0263 70.5743C59.6297 70.459 60.2005 70.2161 60.6993 69.8625C61.1981 69.5088 61.6129 69.0528 61.9152 68.5259C62.2175 67.999 62.4 67.4138 62.4502 66.8107C63.5694 66.9801 64.7114 66.7098 65.6299 66.058C66.5485 65.4062 67.1702 64.4251 67.3608 63.3262C68.179 63.5081 69.0328 63.4577 69.823 63.1807C70.6131 62.9038 71.3072 62.4117 71.8245 61.7617C72.3418 61.1117 72.6611 60.3305 72.7452 59.5089C72.8293 58.6873 72.6748 57.8591 72.2997 57.1206L75.544 54.8816C75.8623 55.3516 76.335 55.6997 76.8828 55.8678C77.4307 56.0358 78.0205 56.0136 78.5537 55.8048L84.0811 53.6257C84.7017 53.3775 85.1978 52.8982 85.4615 52.292C85.7251 51.6857 85.7351 51.0015 85.4892 50.3881ZM52.3803 38.5331L63.9663 39.7509C65.6705 39.8673 67.3743 39.5191 68.8908 38.7447L74.5078 52.5549L70.555 55.2828C68.1109 53.4323 64.7929 50.9239 63.3585 49.8469C63.0002 49.5777 62.5909 49.3816 62.1546 49.27C61.7184 49.1584 61.2639 49.1335 60.8178 49.1969C55.7807 49.8286 51.7035 46.8688 50.1718 45.5616C49.7227 45.1877 49.1645 44.9639 48.5779 44.9226C47.9912 44.8813 47.4064 45.0246 46.9078 45.3318L41.0364 48.9689C40.6723 49.1849 40.2387 49.2574 39.8226 49.1719C39.4064 49.0864 39.0385 48.8491 38.7926 48.5077C38.5468 48.1663 38.4411 47.746 38.4968 47.3311C38.5524 46.9162 38.7654 46.5374 39.0929 46.2706L46.7948 40.1449C47.5711 39.5257 48.4646 39.0643 49.4234 38.7877C50.3822 38.511 51.3873 38.4245 52.3803 38.5331ZM22.722 53.4919L17.1952 51.3134L24.3555 33.7098L29.8817 35.8883C29.8759 35.9027 22.7232 53.4925 22.7232 53.4925L22.722 53.4919ZM30.9563 60.4919C30.9378 60.3112 30.9559 60.1287 31.0095 59.9549C31.0632 59.7812 31.1513 59.6196 31.2688 59.4796L34.0837 56.1033C34.3209 55.8215 34.6616 55.6433 35.0316 55.6076C35.4016 55.5718 35.771 55.6814 36.0594 55.9124C36.2248 56.0598 36.3553 56.2413 36.4413 56.444C36.5274 56.6467 36.5669 56.8656 36.5572 57.0851C36.5474 57.3046 36.4886 57.5193 36.385 57.7138C36.2813 57.9084 36.1353 58.078 35.9574 58.2106L33.434 61.2372C33.2554 61.4434 33.0195 61.5938 32.7553 61.6698C32.4911 61.7458 32.21 61.7441 31.9468 61.6649C31.6835 61.5857 31.4495 61.4325 31.2735 61.2241C31.0975 61.0157 30.9873 60.7612 30.9563 60.4919ZM35.2917 65.1134C35.1262 64.9659 34.9958 64.7843 34.9097 64.5815C34.8237 64.3786 34.7841 64.1597 34.7938 63.9401C34.8036 63.7205 34.8624 63.5057 34.9661 63.3111C35.0698 63.1164 35.2158 62.9467 35.3937 62.8139L37.9165 59.7887C38.1531 59.5059 38.4942 59.3273 38.8646 59.2921C39.235 59.2569 39.6045 59.3681 39.8917 59.6011C40.1789 59.8341 40.3603 60.1698 40.3961 60.5345C40.4318 60.8992 40.319 61.2629 40.0823 61.5457L37.268 64.9213C37.0313 65.2041 36.6905 65.3831 36.3201 65.4191C35.9498 65.4551 35.58 65.3452 35.2917 65.1134ZM39.7149 68.089C39.4286 67.8555 39.2476 67.52 39.2113 67.1558C39.175 66.7915 39.2863 66.4279 39.521 66.144L42.3359 62.7677C42.5722 62.4847 42.913 62.3056 43.2833 62.2699C43.6537 62.2341 44.0233 62.3446 44.3109 62.577C44.5986 62.8094 44.7807 63.1447 44.8173 63.5093C44.8539 63.8739 44.742 64.2379 44.5061 64.5212L41.6905 67.8981C41.4534 68.18 41.1127 68.3582 40.7426 68.394C40.3726 68.4297 40.0032 68.3201 39.7149 68.089ZM44.8495 71.7541C44.5746 71.7768 44.299 71.7197 44.0566 71.59C43.8143 71.4602 43.6158 71.2634 43.4858 71.0239C43.3557 70.7844 43.2998 70.5126 43.3248 70.2422C43.3499 69.9717 43.4548 69.7144 43.6267 69.502L46.4422 66.1257C46.559 65.985 46.7028 65.8683 46.8655 65.7823C47.0282 65.6964 47.2064 65.6429 47.3901 65.6248C47.5738 65.6068 47.7594 65.6247 47.936 65.6773C48.1127 65.73 48.2771 65.8165 48.4198 65.9318C48.5625 66.0471 48.6807 66.189 48.7676 66.3494C48.8545 66.5098 48.9084 66.6854 48.9262 66.8663C48.944 67.0472 48.9254 67.2298 48.8715 67.4036C48.8175 67.5774 48.7293 67.739 48.6118 67.8792L45.7969 71.2555C45.6803 71.3961 45.5365 71.5125 45.3739 71.5981C45.2113 71.6836 45.033 71.7367 44.8495 71.7541ZM69.9248 60.1709C69.7711 60.3755 69.5773 60.5477 69.3549 60.6773C69.1324 60.8068 68.8859 60.8911 68.6297 60.9252C68.3736 60.9593 68.1131 60.9424 67.8637 60.8756C67.6143 60.8088 67.381 60.6934 67.1777 60.5363L65.7857 59.392C65.7633 59.3743 65.7424 59.3575 65.7202 59.3409C65.6938 59.3287 65.6824 59.2994 65.6568 59.2887L62.2556 56.4875C61.9983 56.2757 61.666 56.1731 61.3318 56.2024C60.9977 56.2317 60.6891 56.3905 60.4738 56.6438C60.2586 56.8971 60.1544 57.2243 60.1842 57.5532C60.214 57.8822 60.3752 58.186 60.6326 58.3979C60.6747 58.4706 64.1101 61.2374 64.1589 61.2993C64.5259 61.5671 64.7697 61.9675 64.8369 62.4124C64.904 62.8572 64.7889 63.3101 64.5168 63.6714C64.3821 63.8503 64.2129 64.0013 64.0189 64.1158C63.825 64.2304 63.61 64.3062 63.3862 64.3389C62.9343 64.405 62.4743 64.2916 62.1073 64.0238C61.2626 63.3698 58.5179 61.2689 57.772 60.5904C57.516 60.3833 57.1877 60.2833 56.8577 60.312C56.5277 60.3407 56.2222 60.4957 56.0071 60.7437C55.7919 60.9917 55.6841 61.3129 55.707 61.6383C55.7298 61.9637 55.8814 62.2673 56.1292 62.4838L59.3419 65.1863C59.6752 65.4776 59.8809 65.8847 59.9159 66.3222C59.9509 66.7596 59.8125 67.1934 59.5296 67.5325C59.2468 67.8716 58.8415 68.0896 58.3988 68.1409C57.9562 68.1921 57.5106 68.0726 57.1555 67.8074L54.2591 65.5554C54.2108 65.5269 54.1605 65.5019 54.1086 65.4805C53.8987 65.3589 53.6572 65.3005 53.4139 65.3126C53.1707 65.3247 52.9364 65.4067 52.74 65.5484C52.5435 65.6902 52.3936 65.8856 52.3088 66.1103C52.224 66.3351 52.2079 66.5794 52.2625 66.813C52.3092 67.4652 53.936 68.3996 54.3553 68.8042C54.6181 69.1264 54.7515 69.5324 54.7301 69.945C54.7087 70.3577 54.5341 70.7482 54.2395 71.0424C53.9448 71.3367 53.5506 71.514 53.1318 71.5409C52.7129 71.5677 52.2987 71.4421 51.9678 71.188L50.2312 69.8628C50.8122 69.3133 51.2093 68.6027 51.3696 67.8255C51.53 67.0482 51.446 66.2414 51.1288 65.5123C50.8116 64.7833 50.2763 64.1667 49.5942 63.7448C48.912 63.3228 48.1155 63.1155 47.3107 63.1505C47.2416 62.6405 47.0699 62.1491 46.8057 61.7052C46.5415 61.2612 46.19 60.8735 45.7719 60.5649C45.3537 60.2562 44.8773 60.0326 44.3704 59.9073C43.8634 59.782 43.3362 59.7574 42.8196 59.835C42.6333 58.9907 42.1629 58.2331 41.4845 57.685C40.8061 57.1369 39.9596 56.8305 39.0822 56.8155C39.041 56.0377 38.7629 55.29 38.2841 54.6699C37.8053 54.0499 37.1481 53.586 36.3978 53.3388C35.6476 53.0915 34.8391 53.0723 34.0776 53.2837C33.3162 53.4951 32.6369 53.9272 32.1284 54.5239L30.8158 56.0981L25.7581 52.7261L31.4657 38.6927C32.8304 39.4599 34.3585 39.902 35.9278 39.9837L42.6065 40.2744L37.5058 44.3311C37.0148 44.724 36.6196 45.2203 36.3492 45.7834C36.0789 46.3466 35.9403 46.9623 35.9436 47.5851C35.9469 48.208 36.0921 48.8222 36.3685 49.3825C36.6448 49.9429 37.0453 50.435 37.5404 50.8228C38.2316 51.3336 39.0615 51.6304 39.9245 51.6753C40.7875 51.7202 41.6446 51.5113 42.3866 51.0751L48.2431 47.4465C48.2844 47.4181 48.3337 47.4032 48.384 47.404C48.4343 47.4047 48.4832 47.4211 48.5235 47.4508C50.3028 48.9696 55.0965 52.4206 61.1427 51.6667C61.3789 51.6287 61.6209 51.6842 61.8158 51.8211C63.3573 52.9781 67.0616 55.7786 69.4937 57.6203C69.8876 57.9073 70.1528 58.3338 70.2333 58.8097C70.3137 59.2857 70.2031 59.7738 69.9248 60.1709ZM77.615 53.4925C77.615 53.4925 70.468 35.9305 70.4547 35.8883L75.9808 33.7098L83.1399 51.3141L77.615 53.4925Z" fill="#687078"/>
</svg>
