<svg width="100" height="100" viewBox="0 0 100 100" fill="none" xmlns="http://www.w3.org/2000/svg">
<circle cx="50" cy="50" r="50" fill="#F0F3F5"/>
<circle cx="50" cy="50" r="49.5" stroke="#687078" stroke-opacity="0.1"/>
<path d="M68.567 28.2959H68.5669H58.1546L54.1524 24.2934L54.1511 24.2922C53.3775 23.54 52.3453 23.1126 51.2664 23.0977V23.0977H51.2647L31.4331 23.0977L31.433 23.0977C30.0888 23.0992 28.8 23.6339 27.8495 24.5844C26.899 25.5349 26.3643 26.8236 26.3628 28.1678V28.168L26.3628 69.0801L26.3628 69.0802C26.3644 70.4243 26.8991 71.713 27.8496 72.6633C28.8002 73.6136 30.0889 74.1481 31.433 74.1494H31.4331H36.5708V74.2773V74.2775C36.5723 75.6217 37.107 76.9104 38.0575 77.8609C39.008 78.8114 40.2968 79.3461 41.641 79.3477H41.6411H68.5669H68.567C69.9113 79.3461 71.2 78.8114 72.1505 77.8609C73.101 76.9104 73.6357 75.6217 73.6372 74.2775V74.2773V33.3652V33.3651C73.6356 32.021 73.1009 30.7324 72.1504 29.782C71.1998 28.8317 69.9111 28.2972 68.567 28.2959ZM50.7734 25.3477V33.7305V33.7306C50.7744 34.5518 51.1011 35.3391 51.6818 35.9198C52.2625 36.5005 53.0497 36.8271 53.8709 36.8281H53.8711H61.1792V69.0799C61.1782 69.8275 60.8806 70.5442 60.3519 71.0728C59.8232 71.6013 59.1064 71.8986 58.3588 71.8994H31.4332C30.6856 71.8986 29.9688 71.6013 29.4401 71.0728C28.9114 70.5442 28.6139 69.8276 28.6128 69.0801C28.6128 69.08 28.6128 69.08 28.6128 69.0799L28.6128 28.1681C28.6136 27.4203 28.9111 26.7034 29.4398 26.1747C29.9686 25.6459 30.6855 25.3485 31.4333 25.3477H50.7734ZM38.8208 74.2772V74.1494H58.3589H58.359C59.7031 74.1481 60.9918 73.6136 61.9424 72.6633C62.8929 71.7129 63.4276 70.4243 63.4292 69.0802V69.0801V35.2663C63.5049 34.2191 62.9844 33.2975 62.3119 32.4898C61.9742 32.0842 61.5943 31.7028 61.2247 31.3447C61.1249 31.248 61.026 31.1532 60.929 31.0601C60.7443 30.8829 60.566 30.7119 60.3999 30.5459H68.5668C69.3144 30.5467 70.0312 30.844 70.5599 31.3726C71.0886 31.9011 71.3862 32.6178 71.3872 33.3654V74.2772C71.3864 75.025 71.0889 75.7419 70.5602 76.2706C70.0314 76.7994 69.3145 77.0968 68.5668 77.0977H41.6413C40.8935 77.0968 40.1766 76.7994 39.6478 76.2706C39.1191 75.7419 38.8217 75.025 38.8208 74.2772ZM60.6412 33.9644C60.8137 34.1407 60.9484 34.3495 61.0379 34.5781H53.8713C53.6465 34.5778 53.431 34.4884 53.2721 34.3295C53.1132 34.1705 53.0238 33.9551 53.0234 33.7303V26.3463L53.1464 26.4692L54.0332 27.3561L56.7243 30.0475C58.6305 31.9537 60.542 33.8654 60.6412 33.9644L60.6412 33.9644Z" fill="#687078" stroke="#687078" stroke-width="0.25"/>
<path d="M32 41.2227H58" stroke="#687078" stroke-width="2" stroke-linecap="round"/>
<path d="M32 47.2227H58" stroke="#687078" stroke-width="2" stroke-linecap="round"/>
<path d="M32 53.2227H58" stroke="#687078" stroke-width="2" stroke-linecap="round"/>
<path d="M32 59.2227H58" stroke="#687078" stroke-width="2" stroke-linecap="round"/>
<path d="M32 65.2227H49.5" stroke="#687078" stroke-width="2" stroke-linecap="round"/>
</svg>
