<svg width="47" height="28" viewBox="0 0 47 28" fill="none" xmlns="http://www.w3.org/2000/svg">
<path d="M46.0801 12.5078L41.5042 1.25632C41.3435 0.865364 41.0323 0.552805 40.6384 0.386761C40.2446 0.220718 39.8001 0.214651 39.4018 0.369883L35.8696 1.76192C35.5153 1.90238 35.223 2.16186 35.0446 2.49432C34.8662 2.82678 34.8131 3.21072 34.8949 3.57801C34.159 3.96814 33.3305 4.15743 32.4953 4.12626L25.0906 3.34787C23.4938 3.17445 21.889 3.59769 20.5941 4.53377L14.4719 4.26736C13.642 4.20988 12.8378 3.9593 12.1254 3.53621C12.1939 3.17376 12.133 2.79913 11.953 2.47583C11.7731 2.15252 11.4851 1.90043 11.1379 1.7623L7.60606 0.369851C7.20776 0.214704 6.76332 0.220771 6.36954 0.386733C5.97576 0.552694 5.66453 0.865106 5.50364 1.25593L0.926934 12.5078C0.768364 12.8998 0.774093 13.3377 0.942865 13.7256C1.11164 14.1135 1.42969 14.4197 1.82735 14.5772L5.35995 15.97C5.68375 16.0966 6.04046 16.1169 6.37689 16.0277C6.71332 15.9384 7.01145 15.7446 7.22685 15.475L10.1129 17.399C9.84026 17.7633 9.67401 18.1939 9.63209 18.6445C9.59017 19.095 9.67417 19.5482 9.87502 19.9551C10.0759 20.362 10.3859 20.7071 10.7716 20.9531C11.1573 21.1991 11.6039 21.3365 12.0632 21.3506C12.0796 21.6961 12.1697 22.0343 12.3276 22.3432C12.4856 22.6521 12.7078 22.9248 12.9799 23.1436C13.2519 23.3623 13.5677 23.5222 13.9067 23.6129C14.2457 23.7035 14.6003 23.7229 14.9474 23.6697C15.0728 24.2429 15.402 24.7531 15.8757 25.1084C16.3495 25.4637 16.9365 25.6408 17.5311 25.6076C17.5994 26.0826 17.806 26.5279 18.126 26.8897C18.4459 27.2516 18.8655 27.5144 19.3339 27.6464C19.8024 27.7784 20.2996 27.774 20.7656 27.6337C21.2316 27.4934 21.6462 27.2231 21.9595 26.8557L22.5175 26.1866L23.6644 27.0618C24.037 27.3413 24.4765 27.5216 24.9405 27.5851C25.4045 27.6486 25.8773 27.5933 26.3132 27.4245C26.7492 27.2556 27.1335 26.979 27.4292 26.6213C27.7249 26.2635 27.9218 25.8368 28.0011 25.3822C28.3826 25.4744 28.78 25.484 29.1656 25.4103C29.5513 25.3366 29.9162 25.1814 30.235 24.9554C30.5538 24.7293 30.8189 24.4378 31.0122 24.1011C31.2054 23.7643 31.322 23.3902 31.3541 23.0047C32.0695 23.113 32.7994 22.9402 33.3865 22.5236C33.9737 22.107 34.371 21.4799 34.4929 20.7775C35.0158 20.8938 35.5615 20.8616 36.0666 20.6845C36.5717 20.5075 37.0153 20.193 37.346 19.7775C37.6766 19.3621 37.8807 18.8627 37.9344 18.3376C37.9882 17.8125 37.8895 17.2831 37.6497 16.811L39.7233 15.3799C39.9268 15.6803 40.2289 15.9028 40.5791 16.0103C40.9293 16.1177 41.3063 16.1035 41.6471 15.97L45.1801 14.5772C45.5768 14.4186 45.8938 14.1122 46.0624 13.7247C46.2309 13.3372 46.2373 12.8999 46.0801 12.5078ZM24.9177 4.93037L32.3231 5.70876C33.4124 5.78315 34.5015 5.56061 35.4708 5.0656L39.0611 13.8928L36.5345 15.6364C34.9723 14.4536 32.8515 12.8503 31.9347 12.1619C31.7056 11.9898 31.444 11.8645 31.1652 11.7931C30.8863 11.7218 30.5958 11.7059 30.3107 11.7464C27.0911 12.1502 24.4851 10.2584 23.506 9.42283C23.219 9.18381 22.8622 9.04078 22.4872 9.01437C22.1123 8.98797 21.7385 9.07956 21.4198 9.27593L17.6669 11.6007C17.4342 11.7388 17.1571 11.7851 16.8911 11.7304C16.6251 11.6758 16.3899 11.5241 16.2328 11.3059C16.0756 11.0877 16.008 10.819 16.0436 10.5538C16.0792 10.2886 16.2154 10.0465 16.4247 9.87596L21.3476 5.9606C21.8438 5.56479 22.4148 5.26991 23.0277 5.09307C23.6405 4.91622 24.283 4.86092 24.9177 4.93037ZM5.96075 14.4917L2.42815 13.0993L7.00486 1.84741L10.5371 3.23985C10.5334 3.24908 5.96154 14.4921 5.96154 14.4921L5.96075 14.4917ZM11.2239 18.9659C11.2121 18.8504 11.2237 18.7338 11.258 18.6227C11.2923 18.5116 11.3486 18.4083 11.4237 18.3188L13.2229 16.1608C13.3745 15.9807 13.5923 15.8668 13.8288 15.8439C14.0653 15.8211 14.3014 15.8911 14.4857 16.0388C14.5915 16.133 14.6748 16.249 14.7298 16.3786C14.7848 16.5082 14.8101 16.6481 14.8039 16.7884C14.7977 16.9287 14.7601 17.0659 14.6938 17.1902C14.6276 17.3146 14.5342 17.423 14.4205 17.5078L12.8076 19.4423C12.6935 19.5741 12.5427 19.6702 12.3738 19.7188C12.2049 19.7674 12.0253 19.7663 11.857 19.7157C11.6888 19.665 11.5392 19.5671 11.4267 19.4339C11.3142 19.3007 11.2437 19.138 11.2239 18.9659ZM13.995 21.9199C13.8893 21.8256 13.8059 21.7095 13.7509 21.5799C13.6959 21.4502 13.6706 21.3102 13.6768 21.1699C13.683 21.0295 13.7206 20.8923 13.7869 20.7679C13.8532 20.6434 13.9465 20.5349 14.0602 20.4501L15.6727 18.5164C15.824 18.3357 16.042 18.2215 16.2788 18.199C16.5155 18.1766 16.7517 18.2476 16.9353 18.3965C17.1188 18.5454 17.2348 18.76 17.2576 18.9931C17.2805 19.2262 17.2083 19.4587 17.0571 19.6394L15.2582 21.7971C15.107 21.9778 14.8891 22.0922 14.6524 22.1152C14.4157 22.1382 14.1793 22.068 13.995 21.9199ZM16.8222 23.8218C16.6392 23.6725 16.5236 23.4581 16.5003 23.2253C16.4771 22.9925 16.5483 22.76 16.6983 22.5786L18.4975 20.4206C18.6486 20.2397 18.8664 20.1252 19.1031 20.1023C19.3398 20.0795 19.5761 20.1501 19.7599 20.2986C19.9438 20.4472 20.0602 20.6615 20.0836 20.8946C20.107 21.1276 20.0354 21.3602 19.8847 21.5413L18.085 23.6998C17.9334 23.88 17.7157 23.9939 17.4791 24.0167C17.2426 24.0396 17.0065 23.9695 16.8222 23.8218ZM20.1042 26.1644C19.9284 26.1789 19.7523 26.1425 19.5974 26.0595C19.4425 25.9766 19.3156 25.8508 19.2325 25.6977C19.1494 25.5446 19.1136 25.3709 19.1296 25.1981C19.1456 25.0252 19.2127 24.8607 19.3226 24.7249L21.1222 22.5669C21.1968 22.4769 21.2888 22.4024 21.3927 22.3474C21.4967 22.2925 21.6107 22.2583 21.7281 22.2468C21.8455 22.2352 21.9641 22.2466 22.077 22.2803C22.1899 22.314 22.295 22.3693 22.3862 22.443C22.4774 22.5167 22.5529 22.6074 22.6085 22.7099C22.664 22.8124 22.6985 22.9247 22.7099 23.0403C22.7213 23.1559 22.7094 23.2726 22.6749 23.3837C22.6404 23.4948 22.584 23.5981 22.5089 23.6877L20.7097 25.8457C20.6352 25.9356 20.5433 26.01 20.4393 26.0647C20.3354 26.1194 20.2215 26.1533 20.1042 26.1644ZM36.1317 18.7607C36.0335 18.8915 35.9096 19.0016 35.7674 19.0844C35.6252 19.1672 35.4676 19.2211 35.3039 19.2429C35.1402 19.2646 34.9737 19.2539 34.8143 19.2112C34.6549 19.1685 34.5058 19.0947 34.3758 18.9943L33.4861 18.2629C33.4718 18.2516 33.4584 18.2408 33.4442 18.2302C33.4274 18.2224 33.4201 18.2037 33.4037 18.1969L31.2297 16.4064C31.0652 16.271 30.8528 16.2054 30.6393 16.2241C30.4257 16.2429 30.2284 16.3444 30.0909 16.5063C29.9533 16.6682 29.8867 16.8773 29.9057 17.0876C29.9248 17.2978 30.0278 17.492 30.1923 17.6275C30.2193 17.674 32.4151 19.4424 32.4463 19.482C32.6808 19.6532 32.8367 19.9091 32.8796 20.1934C32.9225 20.4778 32.8489 20.7672 32.675 20.9982C32.5889 21.1125 32.4808 21.209 32.3568 21.2822C32.2328 21.3554 32.0954 21.4039 31.9524 21.4248C31.6636 21.467 31.3695 21.3946 31.135 21.2234C30.595 20.8054 28.8407 19.4626 28.3639 19.0289C28.2003 18.8965 27.9905 18.8326 27.7795 18.8509C27.5686 18.8692 27.3733 18.9683 27.2358 19.1268C27.0983 19.2854 27.0294 19.4907 27.044 19.6987C27.0586 19.9066 27.1555 20.1007 27.3139 20.2391L29.3673 21.9665C29.5804 22.1527 29.7119 22.4129 29.7343 22.6925C29.7566 22.9721 29.6681 23.2493 29.4874 23.4661C29.3066 23.6828 29.0475 23.8222 28.7646 23.855C28.4816 23.8877 28.1968 23.8113 27.9699 23.6418L26.1185 22.2024C26.0877 22.1842 26.0555 22.1682 26.0223 22.1545C25.8882 22.0768 25.7338 22.0394 25.5783 22.0472C25.4229 22.0549 25.2731 22.1073 25.1475 22.1979C25.022 22.2885 24.9262 22.4134 24.872 22.5571C24.8177 22.7007 24.8075 22.8569 24.8424 23.0062C24.8722 23.4231 25.9121 24.0203 26.1801 24.2789C26.348 24.4849 26.4333 24.7444 26.4196 25.0081C26.406 25.2719 26.2943 25.5215 26.106 25.7096C25.9176 25.8976 25.6657 26.011 25.398 26.0281C25.1303 26.0453 24.8655 25.965 24.654 25.8026L23.544 24.9555C23.9153 24.6044 24.1692 24.1501 24.2717 23.6533C24.3742 23.1566 24.3205 22.6408 24.1177 22.1748C23.915 21.7089 23.5728 21.3148 23.1368 21.0451C22.7008 20.7754 22.1917 20.6429 21.6773 20.6652C21.6331 20.3392 21.5234 20.0252 21.3545 19.7414C21.1856 19.4576 20.961 19.2098 20.6937 19.0125C20.4265 18.8152 20.1219 18.6723 19.7979 18.5922C19.4739 18.5121 19.1369 18.4964 18.8067 18.546C18.6876 18.0064 18.3869 17.5221 17.9533 17.1718C17.5197 16.8215 16.9786 16.6256 16.4178 16.616C16.3915 16.1189 16.2137 15.641 15.9077 15.2446C15.6017 14.8483 15.1816 14.5518 14.702 14.3938C14.2225 14.2358 13.7057 14.2235 13.219 14.3586C12.7323 14.4937 12.2982 14.7699 11.9731 15.1513L11.1342 16.1575L7.90137 14.0022L11.5495 5.03238C12.4218 5.52275 13.3986 5.80534 14.4016 5.85755L18.6705 6.04333L15.4102 8.63631C15.0964 8.88743 14.8438 9.20464 14.671 9.5646C14.4982 9.92455 14.4096 10.3181 14.4117 10.7162C14.4138 11.1143 14.5066 11.5069 14.6833 11.8651C14.8599 12.2232 15.1159 12.5378 15.4324 12.7856C15.8741 13.1121 16.4046 13.3018 16.9562 13.3305C17.5078 13.3593 18.0556 13.2257 18.5299 12.9469L22.2733 10.6276C22.2996 10.6094 22.3311 10.5999 22.3633 10.6004C22.3955 10.6009 22.4267 10.6114 22.4525 10.6303C23.5898 11.6011 26.6538 13.8069 30.5184 13.325C30.6694 13.3008 30.824 13.3362 30.9486 13.4237C31.9339 14.1633 34.3016 15.9533 35.8561 17.1304C36.1079 17.3139 36.2774 17.5865 36.3289 17.8907C36.3803 18.1949 36.3096 18.5069 36.1317 18.7607ZM41.0471 14.4921C41.0471 14.4921 36.4789 3.26681 36.4704 3.23985L40.0026 1.84741L44.5785 13.0996L41.0471 14.4921Z" fill="white"/>
</svg>
