<svg width="41" height="33" viewBox="0 0 41 33" fill="none" xmlns="http://www.w3.org/2000/svg">
<path d="M28.5155 25.3256L15.9296 21.296L13.6628 11.1932L23.3921 2.37599C24.5038 1.36805 26.2677 1.9902 26.6088 3.50992L30.9673 22.9328C31.3118 24.467 29.9582 25.7872 28.5155 25.3256Z" stroke="white" stroke-width="2" stroke-linecap="round" stroke-linejoin="round"/>
<path d="M8.43472 24.2307C8.27082 24.2418 8.11138 24.2151 7.9642 24.1571M7.9642 24.1571C7.64086 24.0289 7.38442 23.749 7.30302 23.3833L6.87933 21.4945L5.4477 15.1158L5.02178 13.2169C4.89021 12.6305 5.25927 12.0485 5.84463 11.9169L12.3806 10.4507C12.9671 10.3191 13.5491 10.6882 13.6807 11.2735L15.9296 21.2972L15.9619 21.441C15.9809 21.5235 15.9887 21.606 15.9887 21.6863C15.9853 22.1814 15.643 22.6274 15.1391 22.74L7.9642 24.1571Z" stroke="white" stroke-width="2" stroke-linecap="round" stroke-linejoin="round"/>
<path d="M6.87933 21.4935C6.53146 21.7755 6.12338 21.9807 5.66735 22.0822C3.93133 22.4713 2.17413 21.2248 1.74152 19.2958C1.30891 17.3669 2.36479 15.4882 4.10081 15.0991C4.55683 14.9965 5.01397 15.0076 5.44882 15.1136" stroke="white" stroke-width="2" stroke-linecap="round" stroke-linejoin="round"/>
<path d="M13.9142 23.6604L15.3325 26.9496L16.2044 28.9722C16.7173 30.1629 16.0316 31.5277 14.7705 31.8276C13.7983 32.0584 12.7981 31.5667 12.3878 30.6547L9.58699 24.4375" stroke="white" stroke-width="2" stroke-linecap="round" stroke-linejoin="round"/>
<path d="M27.6413 8.10793C29.1543 8.03992 30.5447 9.06347 30.8881 10.5932L31.74 14.3875C32.0834 15.9172 31.2628 17.4369 29.8657 18.0212" stroke="white" stroke-width="2" stroke-linecap="round" stroke-linejoin="round"/>
<path d="M34.223 11.8455L39.0509 10.7617" stroke="white" stroke-width="2" stroke-linecap="round" stroke-linejoin="round"/>
<path d="M34.0703 17.4907L38.9204 18.4663" stroke="white" stroke-width="2" stroke-linecap="round" stroke-linejoin="round"/>
<path d="M31.7623 7.18393L35.1875 3.61377" stroke="white" stroke-width="2" stroke-linecap="round" stroke-linejoin="round"/>
</svg>
