<svg width="352" height="389" viewBox="0 0 352 389" fill="none" xmlns="http://www.w3.org/2000/svg">
<rect x="1" y="1" width="350" height="350" rx="2" fill="#F9EDCB"/>
<rect x="0.5" y="0.5" width="351" height="351" rx="2.5" stroke="#FFC72C" stroke-opacity="0.5"/>
<rect width="300" height="100" transform="translate(26 25)" fill="#FFC72C"/>
<path opacity="0.3" d="M93.944 69.2613V85.4453H90.052V69.2613H83.78V65.5933H100.216V69.2613H93.944ZM106.192 82.4773C106.64 82.4773 107.078 82.3933 107.508 82.2253C107.937 82.0573 108.31 81.8146 108.628 81.4973C108.945 81.1613 109.197 80.7506 109.384 80.2653C109.589 79.78 109.692 79.2106 109.692 78.5573C109.692 77.904 109.589 77.3346 109.384 76.8493C109.197 76.364 108.945 75.9626 108.628 75.6453C108.31 75.3093 107.937 75.0573 107.508 74.8893C107.078 74.7213 106.64 74.6373 106.192 74.6373C105.744 74.6373 105.305 74.7213 104.876 74.8893C104.446 75.0573 104.073 75.3093 103.756 75.6453C103.438 75.9626 103.177 76.364 102.972 76.8493C102.785 77.3346 102.692 77.904 102.692 78.5573C102.692 79.2106 102.785 79.78 102.972 80.2653C103.177 80.7506 103.438 81.1613 103.756 81.4973C104.073 81.8146 104.446 82.0573 104.876 82.2253C105.305 82.3933 105.744 82.4773 106.192 82.4773ZM106.192 71.2493C107.218 71.2493 108.17 71.436 109.048 71.8093C109.944 72.164 110.709 72.668 111.344 73.3213C111.997 73.956 112.501 74.7213 112.856 75.6173C113.229 76.5133 113.416 77.4933 113.416 78.5573C113.416 79.6213 113.229 80.6013 112.856 81.4973C112.501 82.3746 111.997 83.14 111.344 83.7933C110.709 84.4466 109.944 84.96 109.048 85.3333C108.17 85.688 107.218 85.8653 106.192 85.8653C105.165 85.8653 104.204 85.688 103.308 85.3333C102.43 84.96 101.665 84.4466 101.012 83.7933C100.377 83.14 99.873 82.3746 99.4996 81.4973C99.145 80.6013 98.9676 79.6213 98.9676 78.5573C98.9676 77.4933 99.145 76.5133 99.4996 75.6173C99.873 74.7213 100.377 73.956 101.012 73.3213C101.665 72.668 102.43 72.164 103.308 71.8093C104.204 71.436 105.165 71.2493 106.192 71.2493ZM129.487 82.9533C129.487 83.42 129.497 83.8866 129.515 84.3533C129.534 84.8013 129.562 85.1653 129.599 85.4453H126.043C126.006 85.296 125.969 85.072 125.931 84.7733C125.913 84.4746 125.903 84.1666 125.903 83.8493C125.586 84.3906 125.091 84.848 124.419 85.2213C123.766 85.5946 122.973 85.7813 122.039 85.7813C121.05 85.7813 120.145 85.604 119.323 85.2493C118.502 84.876 117.793 84.372 117.195 83.7373C116.617 83.084 116.159 82.3186 115.823 81.4413C115.487 80.5453 115.319 79.5746 115.319 78.5293C115.319 77.5213 115.478 76.5786 115.795 75.7013C116.131 74.824 116.589 74.068 117.167 73.4333C117.746 72.78 118.437 72.2666 119.239 71.8933C120.061 71.52 120.957 71.3333 121.927 71.3333C122.525 71.3333 123.038 71.3893 123.467 71.5013C123.915 71.6133 124.298 71.7533 124.615 71.9213C124.933 72.0893 125.185 72.276 125.371 72.4813C125.577 72.668 125.726 72.8546 125.819 73.0413V65.1733H129.487V82.9533ZM119.071 78.5293C119.071 79.7613 119.389 80.7226 120.023 81.4133C120.677 82.104 121.498 82.4493 122.487 82.4493C123.439 82.4493 124.242 82.104 124.895 81.4133C125.549 80.7226 125.875 79.752 125.875 78.5013C125.875 77.2693 125.549 76.3266 124.895 75.6733C124.242 75.0013 123.439 74.6653 122.487 74.6653C121.535 74.6653 120.723 75.0013 120.051 75.6733C119.398 76.3453 119.071 77.2973 119.071 78.5293ZM132.605 81.6933C132.605 81.0773 132.708 80.536 132.913 80.0693C133.137 79.584 133.436 79.164 133.809 78.8093C134.182 78.4546 134.612 78.1746 135.097 77.9693C135.601 77.764 136.142 77.6146 136.721 77.5213L140.109 77.0173C140.501 76.9613 140.772 76.8493 140.921 76.6813C141.07 76.4946 141.145 76.28 141.145 76.0373C141.145 75.552 140.949 75.132 140.557 74.7773C140.184 74.4226 139.605 74.2453 138.821 74.2453C138 74.2453 137.365 74.4693 136.917 74.9173C136.488 75.3653 136.245 75.888 136.189 76.4853L132.885 75.7853C132.941 75.244 133.109 74.7026 133.389 74.1613C133.669 73.62 134.052 73.1346 134.537 72.7053C135.022 72.276 135.62 71.9306 136.329 71.6693C137.038 71.3893 137.86 71.2493 138.793 71.2493C139.876 71.2493 140.8 71.3986 141.565 71.6973C142.33 71.9773 142.946 72.36 143.413 72.8453C143.898 73.312 144.244 73.8626 144.449 74.4973C144.673 75.132 144.785 75.7946 144.785 76.4853V83.2613C144.785 83.6346 144.804 84.036 144.841 84.4653C144.878 84.876 144.916 85.2026 144.953 85.4453H141.537C141.5 85.2586 141.462 85.0066 141.425 84.6893C141.406 84.3533 141.397 84.0546 141.397 83.7933C141.042 84.3346 140.529 84.8106 139.857 85.2213C139.204 85.632 138.364 85.8373 137.337 85.8373C136.609 85.8373 135.946 85.716 135.349 85.4733C134.77 85.2493 134.276 84.9506 133.865 84.5773C133.454 84.1853 133.137 83.7466 132.913 83.2613C132.708 82.7573 132.605 82.2346 132.605 81.6933ZM138.121 83.0653C138.513 83.0653 138.886 83.0186 139.241 82.9253C139.614 82.8133 139.941 82.636 140.221 82.3933C140.501 82.132 140.725 81.8053 140.893 81.4133C141.061 81.0026 141.145 80.4893 141.145 79.8733V79.2573L138.037 79.7333C137.552 79.808 137.141 79.9853 136.805 80.2653C136.488 80.5266 136.329 80.928 136.329 81.4693C136.329 81.88 136.478 82.2533 136.777 82.5893C137.076 82.9066 137.524 83.0653 138.121 83.0653ZM148.995 90.8773L152.243 83.7093L146.391 71.6693H150.563L154.231 79.7333L157.619 71.6693H161.595L152.943 90.8773H148.995ZM178.465 81.5533C177.681 81.5533 177.065 81.3853 176.617 81.0493C176.169 80.7133 175.879 80.312 175.749 79.8453C175.394 80.424 174.918 80.8626 174.321 81.1613C173.742 81.46 173.135 81.6093 172.501 81.6093C171.885 81.6093 171.315 81.4973 170.793 81.2733C170.289 81.0306 169.841 80.6946 169.449 80.2653C169.075 79.836 168.777 79.3226 168.553 78.7253C168.347 78.128 168.245 77.4746 168.245 76.7653C168.245 75.8506 168.394 75.0106 168.693 74.2453C168.991 73.4613 169.393 72.7893 169.897 72.2293C170.401 71.6693 170.979 71.24 171.633 70.9413C172.305 70.624 173.014 70.4653 173.761 70.4653C174.302 70.4653 174.834 70.596 175.357 70.8573C175.898 71.1186 176.271 71.52 176.477 72.0613L176.701 70.8293H179.361L177.905 77.6893C177.867 77.876 177.849 78.044 177.849 78.1933C177.849 78.436 177.923 78.6506 178.073 78.8373C178.222 79.024 178.446 79.1173 178.745 79.1173C179.081 79.1173 179.417 78.996 179.753 78.7533C180.089 78.5106 180.378 78.184 180.621 77.7733C180.882 77.344 181.087 76.84 181.237 76.2613C181.405 75.6826 181.489 75.0573 181.489 74.3853C181.489 73.396 181.302 72.4906 180.929 71.6693C180.574 70.848 180.07 70.148 179.417 69.5693C178.782 68.972 178.007 68.5146 177.093 68.1973C176.178 67.8613 175.179 67.6933 174.097 67.6933C172.921 67.6933 171.829 67.8986 170.821 68.3093C169.831 68.7013 168.973 69.2706 168.245 70.0173C167.517 70.764 166.938 71.66 166.509 72.7053C166.098 73.732 165.893 74.8706 165.893 76.1213C165.893 77.2786 166.079 78.3613 166.453 79.3693C166.845 80.3586 167.395 81.2173 168.105 81.9453C168.833 82.6733 169.719 83.252 170.765 83.6813C171.81 84.092 172.995 84.2973 174.321 84.2973C175.217 84.2973 176.103 84.176 176.981 83.9333C177.858 83.672 178.689 83.2426 179.473 82.6453L180.817 84.5493C180.443 84.8853 179.995 85.1933 179.473 85.4733C178.95 85.7533 178.399 85.9866 177.821 86.1733C177.242 86.3786 176.654 86.528 176.057 86.6213C175.459 86.7333 174.881 86.7893 174.321 86.7893C172.678 86.7893 171.166 86.528 169.785 86.0053C168.422 85.5013 167.237 84.792 166.229 83.8773C165.239 82.944 164.465 81.824 163.905 80.5173C163.345 79.2106 163.065 77.764 163.065 76.1773C163.065 74.5533 163.354 73.0693 163.933 71.7253C164.511 70.3626 165.295 69.196 166.285 68.2253C167.293 67.2546 168.459 66.4986 169.785 65.9573C171.129 65.416 172.557 65.1453 174.069 65.1453C175.506 65.1453 176.841 65.3786 178.073 65.8453C179.305 66.312 180.369 66.956 181.265 67.7773C182.161 68.5986 182.861 69.5786 183.365 70.7173C183.887 71.8373 184.149 73.0506 184.149 74.3573C184.149 75.4213 183.99 76.392 183.673 77.2693C183.355 78.1466 182.926 78.9026 182.385 79.5373C181.862 80.172 181.255 80.6666 180.565 81.0213C179.893 81.3573 179.193 81.5346 178.465 81.5533ZM175.861 75.1973C175.861 74.5253 175.693 73.9933 175.357 73.6013C175.039 73.1906 174.573 72.9853 173.957 72.9853C173.527 72.9853 173.135 73.088 172.781 73.2933C172.445 73.48 172.155 73.732 171.913 74.0493C171.67 74.3666 171.474 74.74 171.325 75.1693C171.194 75.5986 171.129 76.0466 171.129 76.5133C171.129 77.26 171.278 77.876 171.577 78.3613C171.894 78.8466 172.407 79.0893 173.117 79.0893C173.901 79.0893 174.545 78.7253 175.049 77.9973C175.553 77.2506 175.823 76.3173 175.861 75.1973ZM194.541 65.5933C195.511 65.5933 196.37 65.7333 197.117 66.0133C197.863 66.2746 198.489 66.648 198.993 67.1333C199.515 67.6 199.907 68.16 200.169 68.8133C200.449 69.4666 200.589 70.176 200.589 70.9413C200.589 71.968 200.318 72.864 199.777 73.6293C199.235 74.3946 198.545 74.9173 197.705 75.1973C198.19 75.3093 198.638 75.5053 199.049 75.7853C199.478 76.0653 199.851 76.4106 200.169 76.8213C200.486 77.2133 200.738 77.6706 200.925 78.1933C201.111 78.716 201.205 79.2853 201.205 79.9013C201.205 80.704 201.055 81.4506 200.757 82.1413C200.477 82.8133 200.066 83.392 199.525 83.8773C199.002 84.3626 198.358 84.7453 197.593 85.0253C196.846 85.3053 196.006 85.4453 195.073 85.4453H187.401V65.5933H194.541ZM193.953 73.7973C194.849 73.7973 195.539 73.5733 196.025 73.1253C196.529 72.6773 196.781 72.0706 196.781 71.3053C196.781 70.54 196.538 69.9426 196.053 69.5133C195.586 69.0653 194.877 68.8413 193.925 68.8413H191.209V73.7973H193.953ZM194.345 82.2253C195.297 82.2253 196.034 82.0013 196.557 81.5533C197.079 81.0866 197.341 80.452 197.341 79.6493C197.341 78.8653 197.089 78.2306 196.585 77.7453C196.099 77.2413 195.371 76.9893 194.401 76.9893H191.209V82.2253H194.345ZM212.556 75.3653C212.183 75.2906 211.809 75.2533 211.436 75.2533C210.951 75.2533 210.493 75.3186 210.064 75.4493C209.635 75.58 209.261 75.7946 208.944 76.0933C208.627 76.392 208.365 76.7933 208.16 77.2973C207.973 77.7826 207.88 78.3986 207.88 79.1453V85.4453H204.156V71.6693H207.768V73.7133C207.973 73.2653 208.235 72.9013 208.552 72.6213C208.888 72.3226 209.233 72.0986 209.588 71.9493C209.961 71.8 210.325 71.6973 210.68 71.6413C211.053 71.5853 211.389 71.5573 211.688 71.5573C211.837 71.5573 211.977 71.5666 212.108 71.5853C212.257 71.5853 212.407 71.5946 212.556 71.6133V75.3653ZM221.227 82.4773C221.675 82.4773 222.113 82.3933 222.543 82.2253C222.972 82.0573 223.345 81.8146 223.663 81.4973C223.98 81.1613 224.232 80.7506 224.419 80.2653C224.624 79.78 224.727 79.2106 224.727 78.5573C224.727 77.904 224.624 77.3346 224.419 76.8493C224.232 76.364 223.98 75.9626 223.663 75.6453C223.345 75.3093 222.972 75.0573 222.543 74.8893C222.113 74.7213 221.675 74.6373 221.227 74.6373C220.779 74.6373 220.34 74.7213 219.911 74.8893C219.481 75.0573 219.108 75.3093 218.791 75.6453C218.473 75.9626 218.212 76.364 218.007 76.8493C217.82 77.3346 217.727 77.904 217.727 78.5573C217.727 79.2106 217.82 79.78 218.007 80.2653C218.212 80.7506 218.473 81.1613 218.791 81.4973C219.108 81.8146 219.481 82.0573 219.911 82.2253C220.34 82.3933 220.779 82.4773 221.227 82.4773ZM221.227 71.2493C222.253 71.2493 223.205 71.436 224.083 71.8093C224.979 72.164 225.744 72.668 226.379 73.3213C227.032 73.956 227.536 74.7213 227.891 75.6173C228.264 76.5133 228.451 77.4933 228.451 78.5573C228.451 79.6213 228.264 80.6013 227.891 81.4973C227.536 82.3746 227.032 83.14 226.379 83.7933C225.744 84.4466 224.979 84.96 224.083 85.3333C223.205 85.688 222.253 85.8653 221.227 85.8653C220.2 85.8653 219.239 85.688 218.343 85.3333C217.465 84.96 216.7 84.4466 216.047 83.7933C215.412 83.14 214.908 82.3746 214.535 81.4973C214.18 80.6013 214.003 79.6213 214.003 78.5573C214.003 77.4933 214.18 76.5133 214.535 75.6173C214.908 74.7213 215.412 73.956 216.047 73.3213C216.7 72.668 217.465 72.164 218.343 71.8093C219.239 71.436 220.2 71.2493 221.227 71.2493ZM242.767 71.6693L245.735 80.5453L248.283 71.6693H251.979L247.667 85.4453H243.943L240.723 76.0373L237.559 85.4453H233.779L229.383 71.6693H233.303L235.851 80.5173L238.847 71.6693H242.767ZM258.028 85.4453H254.304V71.6693H257.916V73.3773C258.346 72.668 258.924 72.1453 259.652 71.8093C260.399 71.4733 261.146 71.3053 261.892 71.3053C262.751 71.3053 263.488 71.4546 264.104 71.7533C264.739 72.0333 265.262 72.416 265.672 72.9013C266.083 73.3866 266.382 73.9653 266.568 74.6373C266.774 75.3093 266.876 76.0186 266.876 76.7653V85.4453H263.152V77.4093C263.152 76.6253 262.947 75.972 262.536 75.4493C262.144 74.9266 261.5 74.6653 260.604 74.6653C259.783 74.6653 259.148 74.9453 258.7 75.5053C258.252 76.0466 258.028 76.7186 258.028 77.5213V85.4453Z" fill="white"/>
<mask id="path-4-inside-1_82_98" fill="white">
<path d="M26 143C26 141.895 26.8954 141 28 141H324C325.105 141 326 141.895 326 143V235C326 236.105 325.105 237 324 237H28C26.8954 237 26 236.105 26 235V143Z"/>
</mask>
<path d="M26 143C26 141.895 26.8954 141 28 141H324C325.105 141 326 141.895 326 143V235C326 236.105 325.105 237 324 237H28C26.8954 237 26 236.105 26 235V143Z" fill="white"/>
<path d="M26 141H326H26ZM326 237H26H326ZM28 237C24.6863 237 22 234.314 22 231V147C22 143.686 24.6863 141 28 141H30C30 141 30 141.895 30 143V235C30 236.105 30 237 30 237H28ZM326 141V237V141Z" fill="#FFC72C" mask="url(#path-4-inside-1_82_98)"/>
<rect x="42" y="157" width="35" height="14" rx="2" fill="#FFC72C"/>
<rect x="42" y="175" width="200" height="12" rx="2" fill="#D7D3C8"/>
<rect x="42" y="191" width="215" height="6" rx="2" fill="#F8F7F5"/>
<rect x="42" y="201" width="268" height="8" rx="2" fill="#EFECE5"/>
<rect x="42" y="213" width="115" height="8" rx="2" fill="#EFECE5"/>
<path d="M26 247C26 245.895 26.8954 245 28 245H324C325.105 245 326 245.895 326 247V311C326 312.105 325.105 313 324 313H28C26.8954 313 26 312.105 26 311V247Z" fill="white"/>
<rect x="42" y="261" width="200" height="12" rx="2" fill="#D7D3C8"/>
<rect x="42" y="277" width="268" height="8" rx="2" fill="#EFECE5"/>
<rect x="42" y="289" width="115" height="8" rx="2" fill="#EFECE5"/>
<path d="M26 323C26 321.895 26.8954 321 28 321H324C325.105 321 326 321.895 326 323V387C326 388.105 325.105 389 324 389H28C26.8954 389 26 388.105 26 387V323Z" fill="white"/>
<rect x="42" y="337" width="200" height="12" rx="2" fill="#D7D3C8"/>
<rect x="42" y="353" width="268" height="8" rx="2" fill="#EFECE5"/>
<rect x="42" y="365" width="115" height="8" rx="2" fill="#EFECE5"/>
</svg>
