<svg width="352" height="356" viewBox="0 0 352 356" fill="none" xmlns="http://www.w3.org/2000/svg">
<rect x="1" y="1" width="350" height="315" rx="2" fill="#F0F3F5"/>
<rect x="0.5" y="0.5" width="351" height="316" rx="2.5" stroke="#687078" stroke-opacity="0.2"/>
<rect width="350" height="20" transform="translate(1 1)" fill="#F0F3F5"/>
<rect width="350" height="100" transform="translate(1 21)" fill="#C00404"/>
<path opacity="0.3" d="M105.666 55.128V69H102.33V55.128H96.9543V51.984H111.042V55.128H105.666ZM116.164 66.456C116.548 66.456 116.924 66.384 117.292 66.24C117.66 66.096 117.98 65.888 118.252 65.616C118.524 65.328 118.74 64.976 118.9 64.56C119.076 64.144 119.164 63.656 119.164 63.096C119.164 62.536 119.076 62.048 118.9 61.632C118.74 61.216 118.524 60.872 118.252 60.6C117.98 60.312 117.66 60.096 117.292 59.952C116.924 59.808 116.548 59.736 116.164 59.736C115.78 59.736 115.404 59.808 115.036 59.952C114.668 60.096 114.348 60.312 114.076 60.6C113.804 60.872 113.58 61.216 113.404 61.632C113.244 62.048 113.164 62.536 113.164 63.096C113.164 63.656 113.244 64.144 113.404 64.56C113.58 64.976 113.804 65.328 114.076 65.616C114.348 65.888 114.668 66.096 115.036 66.24C115.404 66.384 115.78 66.456 116.164 66.456ZM116.164 56.832C117.044 56.832 117.86 56.992 118.612 57.312C119.38 57.616 120.036 58.048 120.58 58.608C121.14 59.152 121.572 59.808 121.876 60.576C122.196 61.344 122.356 62.184 122.356 63.096C122.356 64.008 122.196 64.848 121.876 65.616C121.572 66.368 121.14 67.024 120.58 67.584C120.036 68.144 119.38 68.584 118.612 68.904C117.86 69.208 117.044 69.36 116.164 69.36C115.284 69.36 114.46 69.208 113.692 68.904C112.94 68.584 112.284 68.144 111.724 67.584C111.18 67.024 110.748 66.368 110.428 65.616C110.124 64.848 109.972 64.008 109.972 63.096C109.972 62.184 110.124 61.344 110.428 60.576C110.748 59.808 111.18 59.152 111.724 58.608C112.284 58.048 112.94 57.616 113.692 57.312C114.46 56.992 115.284 56.832 116.164 56.832ZM136.132 66.864C136.132 67.264 136.14 67.664 136.156 68.064C136.172 68.448 136.196 68.76 136.228 69H133.18C133.148 68.872 133.116 68.68 133.084 68.424C133.068 68.168 133.06 67.904 133.06 67.632C132.788 68.096 132.364 68.488 131.788 68.808C131.228 69.128 130.548 69.288 129.748 69.288C128.9 69.288 128.124 69.136 127.42 68.832C126.716 68.512 126.108 68.08 125.596 67.536C125.1 66.976 124.708 66.32 124.42 65.568C124.132 64.8 123.988 63.968 123.988 63.072C123.988 62.208 124.124 61.4 124.396 60.648C124.684 59.896 125.076 59.248 125.572 58.704C126.068 58.144 126.66 57.704 127.348 57.384C128.052 57.064 128.82 56.904 129.652 56.904C130.164 56.904 130.604 56.952 130.972 57.048C131.356 57.144 131.684 57.264 131.956 57.408C132.228 57.552 132.444 57.712 132.604 57.888C132.78 58.048 132.908 58.208 132.988 58.368V51.624H136.132V66.864ZM127.204 63.072C127.204 64.128 127.476 64.952 128.02 65.544C128.58 66.136 129.284 66.432 130.132 66.432C130.948 66.432 131.636 66.136 132.196 65.544C132.756 64.952 133.036 64.12 133.036 63.048C133.036 61.992 132.756 61.184 132.196 60.624C131.636 60.048 130.948 59.76 130.132 59.76C129.316 59.76 128.62 60.048 128.044 60.624C127.484 61.2 127.204 62.016 127.204 63.072ZM138.804 65.784C138.804 65.256 138.892 64.792 139.068 64.392C139.26 63.976 139.516 63.616 139.836 63.312C140.156 63.008 140.524 62.768 140.94 62.592C141.372 62.416 141.836 62.288 142.332 62.208L145.236 61.776C145.572 61.728 145.804 61.632 145.932 61.488C146.06 61.328 146.124 61.144 146.124 60.936C146.124 60.52 145.956 60.16 145.62 59.856C145.3 59.552 144.804 59.4 144.132 59.4C143.428 59.4 142.884 59.592 142.5 59.976C142.132 60.36 141.924 60.808 141.876 61.32L139.044 60.72C139.092 60.256 139.236 59.792 139.476 59.328C139.716 58.864 140.044 58.448 140.46 58.08C140.876 57.712 141.388 57.416 141.996 57.192C142.604 56.952 143.308 56.832 144.108 56.832C145.036 56.832 145.828 56.96 146.484 57.216C147.14 57.456 147.668 57.784 148.068 58.2C148.484 58.6 148.78 59.072 148.956 59.616C149.148 60.16 149.244 60.728 149.244 61.32V67.128C149.244 67.448 149.26 67.792 149.292 68.16C149.324 68.512 149.356 68.792 149.388 69H146.46C146.428 68.84 146.396 68.624 146.364 68.352C146.348 68.064 146.34 67.808 146.34 67.584C146.036 68.048 145.596 68.456 145.02 68.808C144.46 69.16 143.74 69.336 142.86 69.336C142.236 69.336 141.668 69.232 141.156 69.024C140.66 68.832 140.236 68.576 139.884 68.256C139.532 67.92 139.26 67.544 139.068 67.128C138.892 66.696 138.804 66.248 138.804 65.784ZM143.532 66.96C143.868 66.96 144.188 66.92 144.492 66.84C144.812 66.744 145.092 66.592 145.332 66.384C145.572 66.16 145.764 65.88 145.908 65.544C146.052 65.192 146.124 64.752 146.124 64.224V63.696L143.46 64.104C143.044 64.168 142.692 64.32 142.404 64.56C142.132 64.784 141.996 65.128 141.996 65.592C141.996 65.944 142.124 66.264 142.38 66.552C142.636 66.824 143.02 66.96 143.532 66.96ZM152.853 73.656L155.637 67.512L150.621 57.192H154.197L157.341 64.104L160.245 57.192H163.653L156.237 73.656H152.853ZM178.113 65.664C177.441 65.664 176.913 65.52 176.529 65.232C176.145 64.944 175.897 64.6 175.785 64.2C175.481 64.696 175.073 65.072 174.561 65.328C174.065 65.584 173.545 65.712 173.001 65.712C172.473 65.712 171.985 65.616 171.537 65.424C171.105 65.216 170.721 64.928 170.385 64.56C170.065 64.192 169.809 63.752 169.617 63.24C169.441 62.728 169.353 62.168 169.353 61.56C169.353 60.776 169.481 60.056 169.737 59.4C169.993 58.728 170.337 58.152 170.769 57.672C171.201 57.192 171.697 56.824 172.257 56.568C172.833 56.296 173.441 56.16 174.081 56.16C174.545 56.16 175.001 56.272 175.449 56.496C175.913 56.72 176.233 57.064 176.409 57.528L176.601 56.472H178.881L177.633 62.352C177.601 62.512 177.585 62.656 177.585 62.784C177.585 62.992 177.649 63.176 177.777 63.336C177.905 63.496 178.097 63.576 178.353 63.576C178.641 63.576 178.929 63.472 179.217 63.264C179.505 63.056 179.753 62.776 179.961 62.424C180.185 62.056 180.361 61.624 180.489 61.128C180.633 60.632 180.705 60.096 180.705 59.52C180.705 58.672 180.545 57.896 180.225 57.192C179.921 56.488 179.489 55.888 178.929 55.392C178.385 54.88 177.721 54.488 176.937 54.216C176.153 53.928 175.297 53.784 174.369 53.784C173.361 53.784 172.425 53.96 171.561 54.312C170.713 54.648 169.977 55.136 169.353 55.776C168.729 56.416 168.233 57.184 167.865 58.08C167.513 58.96 167.337 59.936 167.337 61.008C167.337 62 167.497 62.928 167.817 63.792C168.153 64.64 168.625 65.376 169.233 66C169.857 66.624 170.617 67.12 171.513 67.488C172.409 67.84 173.425 68.016 174.561 68.016C175.329 68.016 176.089 67.912 176.841 67.704C177.593 67.48 178.305 67.112 178.977 66.6L180.129 68.232C179.809 68.52 179.425 68.784 178.977 69.024C178.529 69.264 178.057 69.464 177.561 69.624C177.065 69.8 176.561 69.928 176.049 70.008C175.537 70.104 175.041 70.152 174.561 70.152C173.153 70.152 171.857 69.928 170.673 69.48C169.505 69.048 168.489 68.44 167.625 67.656C166.777 66.856 166.113 65.896 165.633 64.776C165.153 63.656 164.913 62.416 164.913 61.056C164.913 59.664 165.161 58.392 165.657 57.24C166.153 56.072 166.825 55.072 167.673 54.24C168.537 53.408 169.537 52.76 170.673 52.296C171.825 51.832 173.049 51.6 174.345 51.6C175.577 51.6 176.721 51.8 177.777 52.2C178.833 52.6 179.745 53.152 180.513 53.856C181.281 54.56 181.881 55.4 182.313 56.376C182.761 57.336 182.985 58.376 182.985 59.496C182.985 60.408 182.849 61.24 182.577 61.992C182.305 62.744 181.937 63.392 181.473 63.936C181.025 64.48 180.505 64.904 179.913 65.208C179.337 65.496 178.737 65.648 178.113 65.664ZM175.881 60.216C175.881 59.64 175.737 59.184 175.449 58.848C175.177 58.496 174.777 58.32 174.249 58.32C173.881 58.32 173.545 58.408 173.241 58.584C172.953 58.744 172.705 58.96 172.497 59.232C172.289 59.504 172.121 59.824 171.993 60.192C171.881 60.56 171.825 60.944 171.825 61.344C171.825 61.984 171.953 62.512 172.209 62.928C172.481 63.344 172.921 63.552 173.529 63.552C174.201 63.552 174.753 63.24 175.185 62.616C175.617 61.976 175.849 61.176 175.881 60.216ZM191.892 51.984C192.724 51.984 193.46 52.104 194.1 52.344C194.74 52.568 195.276 52.888 195.708 53.304C196.156 53.704 196.492 54.184 196.716 54.744C196.956 55.304 197.076 55.912 197.076 56.568C197.076 57.448 196.844 58.216 196.38 58.872C195.916 59.528 195.324 59.976 194.604 60.216C195.02 60.312 195.404 60.48 195.756 60.72C196.124 60.96 196.444 61.256 196.716 61.608C196.988 61.944 197.204 62.336 197.364 62.784C197.524 63.232 197.604 63.72 197.604 64.248C197.604 64.936 197.476 65.576 197.22 66.168C196.98 66.744 196.628 67.24 196.164 67.656C195.716 68.072 195.164 68.4 194.508 68.64C193.868 68.88 193.148 69 192.348 69H185.772V51.984H191.892ZM191.388 59.016C192.156 59.016 192.748 58.824 193.164 58.44C193.596 58.056 193.812 57.536 193.812 56.88C193.812 56.224 193.604 55.712 193.188 55.344C192.788 54.96 192.18 54.768 191.364 54.768H189.036V59.016H191.388ZM191.724 66.24C192.54 66.24 193.172 66.048 193.62 65.664C194.068 65.264 194.292 64.72 194.292 64.032C194.292 63.36 194.076 62.816 193.644 62.4C193.228 61.968 192.604 61.752 191.772 61.752H189.036V66.24H191.724ZM207.334 60.36C207.014 60.296 206.694 60.264 206.374 60.264C205.958 60.264 205.566 60.32 205.198 60.432C204.83 60.544 204.51 60.728 204.238 60.984C203.966 61.24 203.742 61.584 203.566 62.016C203.406 62.432 203.326 62.96 203.326 63.6V69H200.134V57.192H203.23V58.944C203.406 58.56 203.63 58.248 203.902 58.008C204.19 57.752 204.486 57.56 204.79 57.432C205.11 57.304 205.422 57.216 205.726 57.168C206.046 57.12 206.334 57.096 206.59 57.096C206.718 57.096 206.838 57.104 206.95 57.12C207.078 57.12 207.206 57.128 207.334 57.144V60.36ZM214.766 66.456C215.15 66.456 215.526 66.384 215.894 66.24C216.262 66.096 216.582 65.888 216.854 65.616C217.126 65.328 217.342 64.976 217.502 64.56C217.678 64.144 217.766 63.656 217.766 63.096C217.766 62.536 217.678 62.048 217.502 61.632C217.342 61.216 217.126 60.872 216.854 60.6C216.582 60.312 216.262 60.096 215.894 59.952C215.526 59.808 215.15 59.736 214.766 59.736C214.382 59.736 214.006 59.808 213.638 59.952C213.27 60.096 212.95 60.312 212.678 60.6C212.406 60.872 212.182 61.216 212.006 61.632C211.846 62.048 211.766 62.536 211.766 63.096C211.766 63.656 211.846 64.144 212.006 64.56C212.182 64.976 212.406 65.328 212.678 65.616C212.95 65.888 213.27 66.096 213.638 66.24C214.006 66.384 214.382 66.456 214.766 66.456ZM214.766 56.832C215.646 56.832 216.462 56.992 217.214 57.312C217.982 57.616 218.638 58.048 219.182 58.608C219.742 59.152 220.174 59.808 220.478 60.576C220.798 61.344 220.958 62.184 220.958 63.096C220.958 64.008 220.798 64.848 220.478 65.616C220.174 66.368 219.742 67.024 219.182 67.584C218.638 68.144 217.982 68.584 217.214 68.904C216.462 69.208 215.646 69.36 214.766 69.36C213.886 69.36 213.062 69.208 212.294 68.904C211.542 68.584 210.886 68.144 210.326 67.584C209.782 67.024 209.35 66.368 209.03 65.616C208.726 64.848 208.574 64.008 208.574 63.096C208.574 62.184 208.726 61.344 209.03 60.576C209.35 59.808 209.782 59.152 210.326 58.608C210.886 58.048 211.542 57.616 212.294 57.312C213.062 56.992 213.886 56.832 214.766 56.832ZM233.229 57.192L235.773 64.8L237.957 57.192H241.125L237.429 69H234.237L231.477 60.936L228.765 69H225.525L221.757 57.192H225.117L227.301 64.776L229.869 57.192H233.229ZM246.31 69H243.118V57.192H246.214V58.656C246.582 58.048 247.078 57.6 247.702 57.312C248.342 57.024 248.982 56.88 249.622 56.88C250.358 56.88 250.99 57.008 251.518 57.264C252.062 57.504 252.51 57.832 252.862 58.248C253.214 58.664 253.47 59.16 253.63 59.736C253.806 60.312 253.894 60.92 253.894 61.56V69H250.702V62.112C250.702 61.44 250.526 60.88 250.174 60.432C249.838 59.984 249.286 59.76 248.518 59.76C247.814 59.76 247.27 60 246.886 60.48C246.502 60.944 246.31 61.52 246.31 62.208V69Z" fill="black"/>
<path d="M26 101C26 99.8954 26.8954 99 28 99H176V122H26V101Z" fill="white"/>
<path opacity="0.4" d="M176 99H324C325.105 99 326 99.8954 326 101V122H176V99Z" fill="white"/>
<path d="M26 122H326V174C326 175.105 325.105 176 324 176H28C26.8954 176 26 175.105 26 174V122Z" fill="white"/>
<rect x="42" y="138" width="183" height="12" rx="2" fill="#687078"/>
<rect x="42" y="154" width="130" height="6" rx="2" fill="#98A4AE"/>
<mask id="path-9-inside-1_82_44" fill="white">
<path d="M26 186C26 184.895 26.8954 184 28 184H324C325.105 184 326 184.895 326 186V278C326 279.105 325.105 280 324 280H28C26.8954 280 26 279.105 26 278V186Z"/>
</mask>
<path d="M26 186C26 184.895 26.8954 184 28 184H324C325.105 184 326 184.895 326 186V278C326 279.105 325.105 280 324 280H28C26.8954 280 26 279.105 26 278V186Z" fill="white"/>
<path d="M26 184H326H26ZM326 280H26H326ZM28 280C24.6863 280 22 277.314 22 274V190C22 186.686 24.6863 184 28 184H30C30 184 30 184.895 30 186V278C30 279.105 30 280 30 280H28ZM326 184V280V184Z" fill="#C00404" mask="url(#path-9-inside-1_82_44)"/>
<rect x="42" y="200" width="35" height="14" rx="2" fill="#C00404"/>
<rect x="42" y="218" width="200" height="12" rx="2" fill="#687078"/>
<rect x="42" y="234" width="215" height="6" rx="2" fill="#F0F3F5"/>
<rect x="42" y="244" width="268" height="8" rx="2" fill="#98A4AE"/>
<rect x="42" y="256" width="115" height="8" rx="2" fill="#98A4AE"/>
<path d="M26 290C26 288.895 26.8954 288 28 288H324C325.105 288 326 288.895 326 290V354C326 355.105 325.105 356 324 356H28C26.8954 356 26 355.105 26 354V290Z" fill="white"/>
<rect x="42" y="304" width="200" height="12" rx="2" fill="#687078"/>
<rect x="42" y="320" width="268" height="8" rx="2" fill="#98A4AE"/>
<rect x="42" y="332" width="115" height="8" rx="2" fill="#98A4AE"/>
</svg>
