<?xml version="1.0" encoding="utf-8"?>
<!-- Generator: Adobe Illustrator 28.3.0, SVG Export Plug-In . SVG Version: 6.00 Build 0)  -->
<svg version="1.1" id="Layer_1" xmlns="http://www.w3.org/2000/svg" xmlns:xlink="http://www.w3.org/1999/xlink" x="0px" y="0px"
	 viewBox="0 0 31 31" style="enable-background:new 0 0 31 31;" xml:space="preserve">
<style type="text/css">
	.st0{fill:#4E3629;stroke:#4E3629;stroke-width:0.25;}
	.st1{fill:#4E3629;}
</style>
<path class="st0" d="M15.3,20.8L15.3,20.8c0.8-0.3,1.6-0.8,2.2-1.4L29.7,7.2c0.6-0.6,0.8-1.6,0.4-2.6l-0.1,0l0.1,0
	c-0.3-0.7-0.8-1.5-1.5-2.2v0c-0.7-0.7-1.5-1.2-2.2-1.5c-1-0.4-1.9-0.2-2.6,0.4L11.7,13.5c-0.6,0.6-1.1,1.4-1.4,2.2l-1.9,5.3
	c0,0,0,0,0,0c-0.2,0.4,0,0.9,0.3,1.3c0.2,0.2,0.5,0.4,0.9,0.4c0.1,0,0.3,0,0.4-0.1c0,0,0,0,0,0L15.3,20.8z M12.1,16.4l-0.1,0
	L12.1,16.4c0.2-0.6,0.5-1.1,1-1.5l10-10L26.3,8l-10,10c-0.4,0.4-1,0.8-1.5,1l0,0.1l0-0.1l-4.1,1.4L12.1,16.4z M28.4,5.2L28.4,5.2
	c0,0.1,0.1,0.3,0.1,0.4c0,0.1,0,0.2-0.1,0.3l-0.8,0.8l-3.2-3.2l0.8-0.8c0,0,0.1-0.1,0.2-0.1c0.1,0,0.3,0,0.4,0.1
	c0.5,0.2,1,0.5,1.5,1C27.9,4.2,28.2,4.8,28.4,5.2z"/>
<g>
	<path class="st1" d="M28.5,29.5h-26c-0.6,0-1-0.4-1-1v-26c0-0.6,0.4-1,1-1h13c0.6,0,1,0.4,1,1s-0.4,1-1,1h-12v24h24v-12
		c0-0.6,0.4-1,1-1s1,0.4,1,1v13C29.5,29,29,29.5,28.5,29.5z"/>
</g>
</svg>
