<svg width="25" height="24" viewBox="0 0 25 24" fill="none" xmlns="http://www.w3.org/2000/svg">
<path d="M22.255 8.75865C22.6938 8.75338 23.0872 8.97263 23.3132 9.32465L23.4214 9.6483C23.5919 10.1583 23.4093 10.725 22.9641 11.043L22.9641 11.043L22.9585 11.0471L18.2746 14.4422L17.6849 14.8697L17.9109 15.5622L19.7031 21.054L19.7031 21.054L19.7054 21.0608C19.8287 21.4296 19.7642 21.8527 19.5262 22.1757L19.5261 22.1757L19.5196 22.1847C19.1167 22.7445 18.3234 22.8754 17.753 22.4605L17.7517 22.4596L13.0679 19.0644L12.481 18.639L11.8941 19.0644L7.21024 22.4596L7.20622 22.4625C6.88201 22.7 6.46504 22.7673 6.07635 22.6403L6.07636 22.6403L6.06983 22.6382C5.40947 22.4275 5.0454 21.7226 5.25968 21.0513C5.2599 21.0507 5.26011 21.05 5.26032 21.0493L7.0511 15.5622L7.27708 14.8697L6.68734 14.4422L2.00753 11.05C2.00695 11.0496 2.00636 11.0492 2.00578 11.0487C1.67701 10.8071 1.48462 10.4276 1.48462 10.0222C1.48462 9.32642 2.04971 8.75872 2.75485 8.75872H8.5499H9.27545L9.50056 8.06897L11.2922 2.57905C11.2923 2.5788 11.2924 2.57856 11.2925 2.57832C11.4197 2.19171 11.7185 1.89277 12.1085 1.76473C12.7757 1.55083 13.4937 1.91895 13.7035 2.5725L13.7034 2.5725L13.705 2.57715L15.4972 8.06897L15.7224 8.75872H16.4479H22.243V8.75879L22.255 8.75865Z" stroke="white" stroke-width="2"/>
</svg>
