<svg width="61" height="61" viewBox="0 0 61 61" fill="none" xmlns="http://www.w3.org/2000/svg">
<circle cx="30.3335" cy="30.584" r="30" fill="#D5F0EC"/>
<path d="M35.3665 14.2698C35.5843 13.5638 35.1892 12.8098 34.4692 12.6439C31.1314 11.8744 27.6354 12.0495 24.3775 13.1633C20.6965 14.4218 17.5087 16.8139 15.2715 19.9963C13.0343 23.1788 11.8626 26.9882 11.9245 30.8779C11.9865 34.7676 13.2789 38.5377 15.6164 41.6473C17.9539 44.7569 21.2163 47.0462 24.9355 48.1868C28.6547 49.3273 32.6396 49.2605 36.3185 47.9959C39.9974 46.7313 43.1812 44.3339 45.4131 41.1477C47.3885 38.3277 48.5284 35.0181 48.7168 31.5979C48.7575 30.8602 48.143 30.2711 47.4043 30.2841L45.8721 30.3111C45.1333 30.3241 44.5516 30.9347 44.4951 31.6714C44.3009 34.2013 43.4316 36.6419 41.9665 38.7334C40.2447 41.1914 37.7886 43.0409 34.9506 44.0164C32.1125 44.992 29.0384 45.0435 26.1692 44.1636C23.3001 43.2838 20.7834 41.5177 18.9801 39.1188C17.1769 36.7199 16.1799 33.8115 16.1321 30.8109C16.0843 27.8102 16.9881 24.8715 18.714 22.4164C20.4399 19.9613 22.8991 18.1159 25.7388 17.1451C28.1551 16.319 30.7411 16.1623 33.2253 16.6789C33.9487 16.8293 34.6969 16.4402 34.9147 15.7342L35.3665 14.2698Z" fill="#008672"/>
<path d="M22.4771 26.8425L23.5091 25.8032C24.031 25.2776 24.8806 25.2761 25.4044 25.7998L30.8482 31.2436L47.6713 14.4205C48.195 13.8968 49.0447 13.8983 49.5665 14.4239L50.5986 15.4632C51.1178 15.9861 51.1164 16.8306 50.5952 17.3517L31.7941 36.1528C31.2717 36.6753 30.4247 36.6753 29.9022 36.1528L22.4805 28.7311C21.9593 28.2099 21.9578 27.3655 22.4771 26.8425Z" fill="#008672"/>
</svg>
